<svg xmlns="http://www.w3.org/2000/svg" xmlns:xlink="http://www.w3.org/1999/xlink" version="1.1" x="0px" y="0px" viewBox="0 0 100 125" enable-background="new 0 0 100 100" xml:space="preserve"><path d="M85.954,36.922c-0.482,0-0.972-0.087-1.449-0.27L50,23.403L15.495,36.652c-2.086,0.801-4.425-0.241-5.225-2.326  c-0.801-2.085,0.241-4.425,2.326-5.225L48.55,15.295c0.933-0.358,1.966-0.358,2.9,0l35.954,13.806  c2.085,0.801,3.127,3.14,2.326,5.225C89.112,35.935,87.579,36.922,85.954,36.922z"/><g><circle cx="26.491" cy="53.376" r="7.583"/><path d="M40.647,71.829h-18.2c-2.234,0-4.044-1.811-4.044-4.044s1.811-4.044,4.044-4.044h14.156V49.585   c0-2.234,1.811-4.044,4.044-4.044c2.234,0,4.045,1.811,4.045,4.044v18.2C44.692,70.019,42.881,71.829,40.647,71.829z"/><path d="M81.092,62.603v9.226h-33.62V53.376h21.107C75.531,53.376,81.092,54.893,81.092,62.603z"/></g><path d="M82.807,84.974H17.193c-2.234,0-4.044-1.811-4.044-4.044s1.811-4.044,4.044-4.044h65.614c2.234,0,4.044,1.811,4.044,4.044  S85.041,84.974,82.807,84.974z"/><text x="0" y="115" fill="#000000" font-size="5px" font-weight="bold" font-family="'Helvetica Neue', Helvetica, Arial-Unicode, Arial, Sans-serif"></text><text x="0" y="120" fill="#000000" font-size="5px" font-weight="bold" font-family="'Helvetica Neue', Helvetica, Arial-Unicode, Arial, Sans-serif"></text></svg>