<svg xmlns="http://www.w3.org/2000/svg" xmlns:xlink="http://www.w3.org/1999/xlink" version="1.1" x="0px" y="0px" viewBox="0 0 100 125" enable-background="new 0 0 100 100" xml:space="preserve"><path fill-rule="evenodd" clip-rule="evenodd" d="M32.335,34.381c0.061-0.002,0.104-0.028,0.129-0.078l0.019-0.077  c0.759-0.577,1.462-1.403,2.109-2.478c0.257-0.427,0.772-1.418,1.544-2.977c0.608-1.229,1.153-2.149,1.634-2.759  c0.691-0.876,1.486-1.478,2.384-1.805c-0.066,0-0.112-0.026-0.138-0.077l-0.02-0.08l-0.939-0.469c0.521-0.25,1.078-0.653,1.667-1.21  c0.316-0.299,0.828-0.841,1.536-1.624c0.648-0.72,1.161-1.246,1.535-1.576c0.584-0.513,1.144-0.868,1.679-1.067H44.38  c0-0.053,0.026-0.105,0.078-0.156c0.053-0.054,0.08-0.106,0.08-0.157c1.268-0.635,2.57-1.178,3.905-1.632  c1.085-0.371,2.128-0.657,3.129-0.857c0.041-0.021,0.083-0.043,0.127-0.067c0.492-0.081,1.146-0.47,1.96-1.169  c0.814-0.7,1.683-2.029,2.604-3.988c0.922-1.959,1.916-3.308,2.98-4.047c1.06-0.741,2.201-1.104,3.424-1.092  c1.22,0.012,2.268,0.159,3.142,0.441c0.933,0.306,1.77,0.739,2.51,1.301c1.771,1.343,2.656,3.115,2.656,5.316  c-0.702,4.968-2.088,8.399-4.156,10.295c0.112,0.168,0.221,0.347,0.328,0.538c0.31,0.555,0.627,1.303,0.95,2.244  c0.185,0.534,0.458,1.357,0.822,2.467c0.166,0.468,0.334,0.896,0.504,1.282c0.177,0.404,0.356,0.764,0.537,1.079h-0.233  c-0.058,0-0.185-0.103-0.38-0.308c-0.24-0.255-0.399-0.414-0.48-0.474h-0.157c0.521,2.142,1.041,3.709,1.558,4.7  c0.742,1.428,1.787,2.47,3.137,3.128v0.155h-1.721c0.96,0.793,2.216,1.559,3.768,2.293c1.413,0.67,2.873,1.22,4.382,1.651  c0.152,0.043,0.306,0.085,0.458,0.127l0.021,0.078c0.026,0.053,0.071,0.08,0.139,0.08c-0.085,0.084-0.197,0.156-0.335,0.215  c-0.149,0.064-0.301,0.096-0.448,0.096c0.44,0.296,1.074,0.645,1.901,1.046c1.119,0.542,1.806,0.883,2.062,1.025  c1.567,0.847,2.669,1.826,3.306,2.935c-0.302-0.024-0.645-0.129-1.028-0.316c-0.416-0.204-0.67-0.306-0.764-0.306h-0.163  c0.064,0.073,0.13,0.148,0.196,0.223c0.1,0.116,0.195,0.231,0.289,0.347c0.012,0.015,0.023,0.031,0.036,0.046  c1.166,1.487,1.75,3.036,1.75,4.643c0,0.654-0.178,1.291-0.534,1.913c-0.324,0.563-0.771,1.078-1.343,1.544  c-0.535,0.431-1.119,0.772-1.753,1.024c-0.629,0.247-1.219,0.369-1.769,0.369c-0.407,0-0.677-0.028-0.807-0.086  c-0.15-0.063-0.324-0.244-0.523-0.54c0.114-0.111,0.296-0.215,0.546-0.308c0.146-0.052,0.374-0.127,0.678-0.227  c0.54-0.205,0.811-0.522,0.811-0.95c0-0.234-0.164-0.468-0.494-0.7c-0.284-0.206-0.736-0.442-1.358-0.709  c-0.351-0.152-1.036-0.426-2.056-0.818c-1.063-0.412-1.923-0.757-2.581-1.036c-2.289-0.969-4.306-2.014-6.05-3.134  c-2.357-1.521-4.387-3.276-6.088-5.265v-0.155c-0.01,0.046-0.021,0.093-0.033,0.141v0.002c-0.154,0.561-0.424,1.183-0.808,1.864  c-0.014,0.019-0.416,0.672-1.207,1.96c-0.495,0.797-0.854,1.487-1.081,2.07c-0.241,0.605-0.389,1.202-0.444,1.792  c-0.018,0.18-0.027,0.362-0.027,0.546c0,1.129,0.457,2.332,1.37,3.61c0.287,0.403,0.756,0.994,1.405,1.775  c0.031,0.037,0.063,0.074,0.095,0.11c0.2,0.154,0.448,0.341,0.744,0.56c0.84,0.641,1.421,1.212,1.745,1.712  c-0.026,0-0.053-0.008-0.081-0.022c-0.05-0.025-0.076-0.07-0.076-0.135h-0.469c0.137,0.356,0.388,0.749,0.755,1.18l1.064,1.142  c0.437,0.469,0.761,0.88,0.973,1.231c0.271,0.443,0.431,0.888,0.482,1.335c-0.178-0.124-0.337-0.22-0.474-0.288  c-0.187-0.08-0.338-0.152-0.455-0.217h-0.155c0.176,0.354,0.468,1.023,0.872,2.007c0.206,0.502,0.441,1.083,0.708,1.745  c0.655,1.628,1.277,2.935,1.863,3.916c-0.066,0-0.25-0.078-0.548-0.234c-0.256-0.132-0.425-0.208-0.508-0.227  c-0.027-0.05-0.04-0.098-0.042-0.142v0.135c0.012,0,0.025,0.002,0.042,0.007c0.026,0.06,0.064,0.126,0.115,0.199  c0.104,0.143,0.157,0.283,0.157,0.419c0,0.467-0.155,1.17-0.469,2.109c-0.313,0.938-0.471,1.67-0.471,2.195  c0,0.54,0.206,1.285,0.62,2.24c0.207,0.475,0.419,0.901,0.634,1.279h-0.314c-0.039,0-0.146-0.04-0.319-0.122  c-0.204-0.096-0.403-0.207-0.6-0.332c-0.007-0.004-0.014-0.009-0.021-0.014c0.052,0.104,0.092,0.263,0.117,0.474  c0.008,0.063,0.015,0.131,0.021,0.204c0.013,0.176,0.125,0.751,0.337,1.731c0.001,0.014,0.003,0.026,0.005,0.04  c0.121,0.84,0.263,1.489,0.425,1.948c0.237,0.669,0.581,1.196,1.033,1.585h-0.661c-0.145-0.082-0.253-0.142-0.323-0.183  c-0.123-0.069-0.199-0.12-0.229-0.147h-0.11c0.496,1.404,0.992,2.526,1.485,3.365c0.785,1.333,1.617,2.091,2.498,2.27  c-0.052,0.15-0.327,0.213-0.827,0.19c-0.536-0.054-0.854-0.08-0.95-0.08c0.016,0.052,0.031,0.101,0.047,0.147  c0.625,0.58,1.358,0.94,2.202,1.085c1.308,0.37,2.333,0.688,3.076,0.951c2.791,0.992,4.186,2.021,4.186,3.091  c0,0.942-0.783,1.544-2.353,1.804c-0.539,0.091-1.192,0.142-1.963,0.155c-0.813-0.005-1.356-0.006-1.632-0.006  c-3.367,0-6.339-0.156-8.92-0.468c-1.979-0.241-3.522-0.56-4.63-0.952c-0.896-0.454-1.457-1.09-1.686-1.912  c-0.097-0.343-0.135-0.72-0.111-1.128l-0.648,1.062c-0.496-2.16-0.576-4.356-0.24-6.587c0.006-0.004,0.013-0.008,0.019-0.011v-0.112  c-0.006,0.042-0.013,0.083-0.019,0.123c-0.187,0.126-0.384,0.274-0.593,0.442c-0.166,0.115-0.367,0.185-0.601,0.208  c0.053-0.218,0.104-0.486,0.151-0.807c0.046-0.314,0.069-0.541,0.069-0.683c0-0.536-0.057-1.043-0.171-1.519  c-0.075-0.313-0.202-0.695-0.381-1.147c-0.194-0.495-0.32-0.848-0.377-1.055c-0.115-0.408-0.174-0.821-0.174-1.24  c0-0.194,0.004-0.338,0.014-0.433c0.016-0.155,0.045-0.281,0.089-0.377c-0.102,0.207-0.233,0.492-0.397,0.853  c-0.144,0.304-0.266,0.528-0.366,0.674c-0.178-0.496-0.278-0.843-0.307-1.045c-0.016-0.125-0.023-0.494-0.023-1.105  c0-0.092,0.035-0.524,0.108-1.296c0.073-0.772,0.111-1.203,0.111-1.294c0-0.336-0.029-0.624-0.086-0.866  c-0.031-0.131-0.095-0.319-0.19-0.565c-0.172-0.445-0.265-0.962-0.274-1.55l-0.772,0.943c0.147-1.448-0.335-2.813-1.447-4.099  c-0.072-0.083-0.232-0.192-0.48-0.325c0.199,0.726,0.238,1.813,0.122,3.264v0.156c-0.07,0-0.147-0.032-0.233-0.1  c-0.055-0.038-0.13-0.106-0.229-0.206c-0.001-0.055-0.004-0.11-0.006-0.165v0.157c0.002,0.003,0.005,0.007,0.006,0.008  c0.021,0.788-0.094,1.517-0.345,2.183c-0.213,0.564-0.55,1.136-1.009,1.714c-0.036,0.045-0.448,0.513-1.234,1.401  c-0.477,0.54-0.815,1.016-1.018,1.426H48.92c0.063-0.31,0.142-0.602,0.234-0.877c0.105-0.291,0.183-0.52,0.234-0.69v-0.157  c-0.052,0.03-0.104,0.061-0.157,0.093c-0.967,0.55-1.763,1.246-2.39,2.091c-0.042,0.057-0.082,0.111-0.121,0.166  c-0.775,1.108-1.19,2.359-1.246,3.758c-0.169-0.157-0.292-0.316-0.367-0.477c-0.105-0.226-0.139-0.483-0.102-0.776  c-0.167,0.338-0.424,0.762-0.771,1.268c-0.197,0.283-0.503,0.724-0.918,1.317c-0.75,1.11-1.178,2.073-1.284,2.892  c-0.187-0.267-0.352-0.545-0.493-0.831c-0.1,0.332-0.149,0.636-0.149,0.909c0,0.177,0.033,0.357,0.099,0.541v0.005l-0.008,0.002  c0.011,0.018,0.021,0.033,0.027,0.047c0.666,1.095,1.775,2.017,3.328,2.771c0.099,0.049,0.52,0.236,1.262,0.561  c0.521,0.224,0.927,0.428,1.218,0.614c0.849,0.541,1.275,1.245,1.275,2.113c0,0.748-0.468,1.321-1.4,1.719  c-0.741,0.315-1.605,0.474-2.592,0.474c-1.464,0-3.032-0.23-4.702-0.688c-1.735-0.475-3.323-1.131-4.764-1.969  c-1.573-0.914-2.802-1.948-3.688-3.104c-0.987-1.293-1.48-2.66-1.48-4.102c0-0.122,0.025-0.319,0.077-0.594  c0.042-0.223,0.157-0.648,0.342-1.275c-0.01,0.002-0.021,0.004-0.03,0.009c-0.366,0.101-0.751,0.251-1.155,0.451  c0.219-1.303,0.57-2.394,1.056-3.274c0.403-0.728,0.99-1.462,1.762-2.202c-0.105,0-0.235,0.025-0.392,0.078  c-0.083,0.028-0.158,0.049-0.226,0.062c0.232-0.47,0.688-1.01,1.367-1.623c0.211-0.187,0.901-0.756,2.07-1.702  c0.893-0.725,1.569-1.338,2.028-1.837c0.647-0.704,1.066-1.378,1.257-2.022c-0.34,0-0.594-0.006-0.763-0.02  c-0.292-0.022-0.508-0.067-0.647-0.136c0.308-0.111,0.592-0.275,0.852-0.491c0.779-0.65,1.338-1.773,1.678-3.37  c0.146-0.688,0.271-1.573,0.375-2.651c0.111-1.171,0.183-1.89,0.215-2.159c0.063-0.037,0.119-0.067,0.167-0.094H39.84  c-0.002,0.021-0.005,0.052-0.011,0.094c-0.197,0.118-0.454,0.296-0.772,0.532v-0.157c0.336-0.59,0.531-1.008,0.584-1.256  c0.028-0.128,0.041-0.517,0.041-1.169c0-0.02,0-0.037,0-0.056c-0.215-0.599-0.477-1.224-0.785-1.874  c-0.608-1.184-1.056-2.071-1.342-2.666c-0.505-1.038-0.877-1.98-1.114-2.827c-0.311-1.108-0.466-2.271-0.466-3.489  c0-1.524,0.454-3.242,1.362-5.155c0.244-0.516,0.512-1.025,0.805-1.527c-0.371,0.434-0.741,0.84-1.112,1.219  c-0.613,0.623-1.228,1.171-1.845,1.643c-0.628,0.876-1.204,1.629-1.726,2.257c-1.414,1.696-2.857,2.979-4.327,3.85  c-1.843,1.093-3.861,1.64-6.056,1.64c-0.456,0-1.162-0.083-2.119-0.25c-1.06-0.183-2.072-0.412-3.041-0.689  c-0.154-0.044-0.304-0.088-0.449-0.132C15.156,54.05,14,53.311,14,52.538c0-0.176,0.05-0.333,0.151-0.472  c0.149-0.208,0.385-0.313,0.708-0.313c0.138,0,0.522,0.105,1.152,0.315c0.63,0.208,1.107,0.313,1.431,0.313c0.007,0,0.015,0,0.025,0  c0.456-0.003,0.907-0.067,1.354-0.189c0.241-0.324,0.595-0.665,1.063-1.023c0.347-0.271,0.715-0.514,1.103-0.73  c0.34-0.188,0.588-0.303,0.744-0.342c-0.208,0-0.494-0.051-0.859-0.156c-0.366-0.104-0.654-0.157-0.863-0.157  c0.792-0.12,1.532-0.619,2.219-1.5c0.265-0.336,0.557-0.772,0.877-1.31c0.371-0.64,0.652-1.121,0.844-1.444  c0.709-1.219,1.354-2.094,1.935-2.627c0.382-0.347,0.79-0.612,1.221-0.793c0.121-0.082,0.245-0.153,0.372-0.216  c-0.176-0.087-0.366-0.16-0.568-0.215c-0.238-0.066-0.466-0.098-0.683-0.098c0-0.052,0.026-0.104,0.077-0.155  c0.053-0.054,0.08-0.106,0.08-0.157c0.673-0.281,1.322-0.72,1.948-1.315c0.427-0.404,0.952-1.003,1.577-1.797  c0.755-0.962,1.266-1.591,1.533-1.885c0.61-0.676,1.219-1.202,1.827-1.577c-0.208-0.104-0.364-0.176-0.469-0.215  C32.625,34.414,32.471,34.381,32.335,34.381z"/><text x="0" y="115" fill="#000000" font-size="5px" font-weight="bold" font-family="'Helvetica Neue', Helvetica, Arial-Unicode, Arial, Sans-serif"></text><text x="0" y="120" fill="#000000" font-size="5px" font-weight="bold" font-family="'Helvetica Neue', Helvetica, Arial-Unicode, Arial, Sans-serif"></text></svg>