<svg height="512pt" viewBox="0 0 512.06405 512" width="512pt" xmlns="http://www.w3.org/2000/svg"><path d="m53.027344 175.4375v-56.585938h-35.308594v81.65625zm0 0" fill="#bdc3c7"/><path d="m17.71875 57.765625v-48.90625c0-4.875 3.953125-8.828125 8.828125-8.828125h17.652344c4.875 0 8.828125 3.953125 8.828125 8.828125v48.90625zm0 0" fill="#bdc3c7"/><path d="m106.875 512.03125h158.015625l-35.3125-361.929688v-122.878906c0-14.628906-11.855469-26.484375-26.480469-26.484375h-69.738281c-14.625 0-26.484375 11.855469-26.484375 26.484375zm0 0" fill="#285680"/><path d="m432.613281 512.03125h61.792969c9.75 0 17.65625-7.902344 17.65625-17.65625v-441.378906c-.027344-9.738282-7.917969-17.625-17.65625-17.652344h-44.136719c-9.738281.027344-17.625 7.914062-17.65625 17.652344v236.050781" fill="#7f6e5d"/><path d="m149.398438 512.03125h-149.335938v-294.488281c0-2.859375 1.386719-5.539063 3.714844-7.195313l131.675781-93.570312c2.691406-1.917969 6.226563-2.167969 9.164063-.65625 2.9375 1.515625 4.78125 4.546875 4.78125 7.851562zm0 0" fill="#4482c3"/><path d="m397.304688 512.03125h-185.378907v-326.621094c0-4.875 3.949219-8.828125 8.828125-8.828125h167.722656c4.875 0 8.828126 3.953125 8.828126 8.828125v92.25" fill="#3f5c6c"/><path d="m512.0625 512.03125h-150.070312v-229.929688c-.097657-2.625 1.027343-5.144531 3.042968-6.824218 2.015625-1.679688 4.699219-2.328125 7.261719-1.757813l133.390625 34.296875c3.828125 1.078125 6.449219 4.601563 6.375 8.578125zm0 0" fill="#7d6599"/><path d="m388.476562 176.582031h-167.722656l13.238282-33.039062c2.679687-6.695313 9.160156-11.085938 16.367187-11.097657h108.507813c7.210937.011719 13.691406 4.402344 16.367187 11.097657zm0 0" fill="#bdc3c7"/><path d="m273.71875 97.136719h61.792969c4.875 0 8.828125 3.949219 8.828125 8.828125v26.480468h-79.449219v-26.480468c0-4.878906 3.953125-8.828125 8.828125-8.828125zm0 0" fill="#3f5c6c"/><path d="m291.371094 26.515625h26.484375c4.875 0 8.828125 3.953125 8.828125 8.828125v61.792969h-44.136719v-61.792969c0-4.875 3.949219-8.828125 8.824219-8.828125zm0 0" fill="#bdc3c7"/><path d="m35.371094 512.03125v-44.136719c0-4.875 3.953125-8.828125 8.828125-8.828125h17.65625c4.875 0 8.828125 3.953125 8.828125 8.828125v44.136719zm0 0" fill="#2c2f38"/><g fill="#f0c419"><path d="m70.683594 414.929688c-4.875 0-8.828125-3.953126-8.828125-8.828126v-35.3125c0-4.875 3.953125-8.824218 8.828125-8.824218s8.828125 3.949218 8.828125 8.824218v35.3125c0 4.875-3.953125 8.828126-8.828125 8.828126zm0 0"/><path d="m35.371094 414.929688c-4.875 0-8.824219-3.953126-8.824219-8.828126v-35.3125c0-4.875 3.949219-8.824218 8.824219-8.824218 4.878906 0 8.828125 3.949218 8.828125 8.824218v35.3125c0 4.875-3.949219 8.828126-8.828125 8.828126zm0 0"/><path d="m70.683594 344.308594c-4.875 0-8.828125-3.953125-8.828125-8.828125v-35.308594c0-4.878906 3.953125-8.828125 8.828125-8.828125s8.828125 3.949219 8.828125 8.828125v35.308594c0 4.875-3.953125 8.828125-8.828125 8.828125zm0 0"/></g><path d="m35.371094 344.308594c-4.875 0-8.824219-3.953125-8.824219-8.828125v-35.308594c0-4.878906 3.949219-8.828125 8.824219-8.828125 4.878906 0 8.828125 3.949219 8.828125 8.828125v35.308594c0 4.875-3.949219 8.828125-8.828125 8.828125zm0 0" fill="#2c3e50"/><path d="m70.683594 273.6875c-4.875 0-8.828125-3.953125-8.828125-8.828125v-35.308594c0-4.875 3.953125-8.828125 8.828125-8.828125s8.828125 3.953125 8.828125 8.828125v35.308594c0 4.875-3.953125 8.828125-8.828125 8.828125zm0 0" fill="#2c3e50"/><path d="m35.371094 273.6875c-4.875 0-8.824219-3.953125-8.824219-8.828125v-35.308594c0-4.875 3.949219-8.828125 8.824219-8.828125 4.878906 0 8.828125 3.953125 8.828125 8.828125v35.308594c0 4.875-3.949219 8.828125-8.828125 8.828125zm0 0" fill="#f0c419"/><path d="m432.613281 432.582031c-4.875 0-8.828125-3.949219-8.828125-8.824219v-26.484374c0-4.875 3.953125-8.828126 8.828125-8.828126s8.828125 3.953126 8.828125 8.828126v26.484374c0 4.875-3.953125 8.824219-8.828125 8.824219zm0 0" fill="#f0c419"/><path d="m397.304688 432.582031c-4.875 0-8.828126-3.949219-8.828126-8.824219v-26.484374c0-4.875 3.953126-8.828126 8.828126-8.828126s8.828124 3.953126 8.828124 8.828126v26.484374c0 4.875-3.953124 8.824219-8.828124 8.824219zm0 0" fill="#2c3e50"/><path d="m397.304688 370.789062c-4.875 0-8.828126-3.949218-8.828126-8.824218v-26.484375c0-4.875 3.953126-8.828125 8.828126-8.828125s8.828124 3.953125 8.828124 8.828125v26.484375c0 4.875-3.953124 8.824218-8.828124 8.824218zm0 0" fill="#f0c419"/><path d="m432.613281 370.789062c-4.875 0-8.828125-3.949218-8.828125-8.824218v-26.484375c0-4.875 3.953125-8.828125 8.828125-8.828125s8.828125 3.953125 8.828125 8.828125v26.484375c0 4.875-3.953125 8.824218-8.828125 8.824218zm0 0" fill="#f0c419"/><path d="m326.683594 220.722656v238.34375h-35.3125v-238.34375c0-4.875 3.953125-8.828125 8.828125-8.828125h17.65625c4.875 0 8.828125 3.953125 8.828125 8.828125zm0 0" fill="#2c3e50"/><path d="m291.371094 459.066406h35.3125v52.964844h-35.3125zm0 0" fill="#2c2f38"/><path d="m361.992188 229.550781h-8.828126c-4.875 0-8.824218-3.953125-8.824218-8.828125s3.949218-8.828125 8.824218-8.828125h8.828126c4.875 0 8.828124 3.953125 8.828124 8.828125s-3.953124 8.828125-8.828124 8.828125zm0 0" fill="#f0c419"/><path d="m476.753906 256.03125h-8.828125c-4.875 0-8.828125-3.953125-8.828125-8.828125s3.953125-8.828125 8.828125-8.828125h8.828125c4.875 0 8.824219 3.953125 8.824219 8.828125s-3.949219 8.828125-8.824219 8.828125zm0 0" fill="#2c3e50"/><path d="m476.753906 220.722656h-8.828125c-4.875 0-8.828125-3.953125-8.828125-8.828125s3.953125-8.828125 8.828125-8.828125h8.828125c4.875 0 8.824219 3.953125 8.824219 8.828125s-3.949219 8.828125-8.824219 8.828125zm0 0" fill="#f0c419"/><path d="m476.753906 185.410156h-8.828125c-4.875 0-8.828125-3.949218-8.828125-8.828125 0-4.875 3.953125-8.824219 8.828125-8.824219h8.828125c4.875 0 8.824219 3.949219 8.824219 8.824219 0 4.878907-3.949219 8.828125-8.824219 8.828125zm0 0" fill="#f0c419"/><path d="m476.753906 150.101562h-8.828125c-4.875 0-8.828125-3.953124-8.828125-8.828124s3.953125-8.828126 8.828125-8.828126h8.828125c4.875 0 8.824219 3.953126 8.824219 8.828126s-3.949219 8.828124-8.824219 8.828124zm0 0" fill="#f0c419"/><path d="m476.753906 114.789062h-8.828125c-4.875 0-8.828125-3.949218-8.828125-8.824218 0-4.878906 3.953125-8.828125 8.828125-8.828125h8.828125c4.875 0 8.824219 3.949219 8.824219 8.828125 0 4.875-3.949219 8.824218-8.824219 8.824218zm0 0" fill="#2c3e50"/><path d="m476.753906 79.480469h-8.828125c-4.875 0-8.828125-3.953125-8.828125-8.828125s3.953125-8.828125 8.828125-8.828125h8.828125c4.875 0 8.824219 3.953125 8.824219 8.828125s-3.949219 8.828125-8.824219 8.828125zm0 0" fill="#2c3e50"/><path d="m256.0625 335.480469h-8.828125c-4.875 0-8.828125-3.953125-8.828125-8.828125s3.953125-8.828125 8.828125-8.828125h8.828125c4.875 0 8.828125 3.953125 8.828125 8.828125s-3.953125 8.828125-8.828125 8.828125zm0 0" fill="#f0c419"/><path d="m256.0625 300.171875h-8.828125c-4.875 0-8.828125-3.953125-8.828125-8.828125s3.953125-8.828125 8.828125-8.828125h8.828125c4.875 0 8.828125 3.953125 8.828125 8.828125s-3.953125 8.828125-8.828125 8.828125zm0 0" fill="#2c3e50"/><path d="m256.0625 264.859375h-8.828125c-4.875 0-8.828125-3.953125-8.828125-8.828125s3.953125-8.828125 8.828125-8.828125h8.828125c4.875 0 8.828125 3.953125 8.828125 8.828125s-3.953125 8.828125-8.828125 8.828125zm0 0" fill="#f0c419"/><path d="m256.0625 229.550781h-8.828125c-4.875 0-8.828125-3.953125-8.828125-8.828125s3.953125-8.828125 8.828125-8.828125h8.828125c4.875 0 8.828125 3.953125 8.828125 8.828125s-3.953125 8.828125-8.828125 8.828125zm0 0" fill="#f0c419"/><path d="m256.0625 476.722656h-8.828125c-4.875 0-8.828125-3.953125-8.828125-8.828125s3.953125-8.828125 8.828125-8.828125h8.828125c4.875 0 8.828125 3.953125 8.828125 8.828125s-3.953125 8.828125-8.828125 8.828125zm0 0" fill="#2c3e50"/><path d="m256.0625 441.410156h-8.828125c-4.875 0-8.828125-3.949218-8.828125-8.828125 0-4.875 3.953125-8.824219 8.828125-8.824219h8.828125c4.875 0 8.828125 3.949219 8.828125 8.824219 0 4.878907-3.953125 8.828125-8.828125 8.828125zm0 0" fill="#f0c419"/><path d="m256.0625 406.101562h-8.828125c-4.875 0-8.828125-3.953124-8.828125-8.828124s3.953125-8.828126 8.828125-8.828126h8.828125c4.875 0 8.828125 3.953126 8.828125 8.828126s-3.953125 8.828124-8.828125 8.828124zm0 0" fill="#f0c419"/><path d="m256.0625 370.789062h-8.828125c-4.875 0-8.828125-3.949218-8.828125-8.824218 0-4.878906 3.953125-8.828125 8.828125-8.828125h8.828125c4.875 0 8.828125 3.949219 8.828125 8.828125 0 4.875-3.953125 8.824218-8.828125 8.824218zm0 0" fill="#2c3e50"/><path d="m194.269531 150.101562h-8.828125c-4.875 0-8.828125-3.953124-8.828125-8.828124s3.953125-8.828126 8.828125-8.828126h8.828125c4.875 0 8.828125 3.953126 8.828125 8.828126s-3.953125 8.828124-8.828125 8.828124zm0 0" fill="#2c3e50"/><path d="m194.269531 114.789062h-8.828125c-4.875 0-8.828125-3.949218-8.828125-8.824218 0-4.878906 3.953125-8.828125 8.828125-8.828125h8.828125c4.875 0 8.828125 3.949219 8.828125 8.828125 0 4.875-3.953125 8.824218-8.828125 8.824218zm0 0" fill="#2c3e50"/><path d="m194.269531 79.480469h-8.828125c-4.875 0-8.828125-3.953125-8.828125-8.828125s3.953125-8.828125 8.828125-8.828125h8.828125c4.875 0 8.828125 3.953125 8.828125 8.828125s-3.953125 8.828125-8.828125 8.828125zm0 0" fill="#f0c419"/><path d="m194.269531 44.171875h-8.828125c-4.875 0-8.828125-3.953125-8.828125-8.828125s3.953125-8.828125 8.828125-8.828125h8.828125c4.875 0 8.828125 3.953125 8.828125 8.828125s-3.953125 8.828125-8.828125 8.828125zm0 0" fill="#f0c419"/><path d="m114.820312 414.929688h-8.828124c-4.875 0-8.828126-3.953126-8.828126-8.828126s3.953126-8.828124 8.828126-8.828124h8.828124c4.875 0 8.828126 3.953124 8.828126 8.828124s-3.953126 8.828126-8.828126 8.828126zm0 0" fill="#f0c419"/><path d="m114.820312 379.617188h-8.828124c-4.875 0-8.828126-3.953126-8.828126-8.828126s3.953126-8.824218 8.828126-8.824218h8.828124c4.875 0 8.828126 3.949218 8.828126 8.824218s-3.953126 8.828126-8.828126 8.828126zm0 0" fill="#2c3e50"/><path d="m114.820312 485.550781h-8.828124c-4.875 0-8.828126-3.953125-8.828126-8.828125s3.953126-8.828125 8.828126-8.828125h8.828124c4.875 0 8.828126 3.953125 8.828126 8.828125s-3.953126 8.828125-8.828126 8.828125zm0 0" fill="#f0c419"/><path d="m114.820312 450.238281h-8.828124c-4.875 0-8.828126-3.953125-8.828126-8.828125s3.953126-8.828125 8.828126-8.828125h8.828124c4.875 0 8.828126 3.953125 8.828126 8.828125s-3.953126 8.828125-8.828126 8.828125zm0 0" fill="#2c3e50"/><path d="m114.820312 344.308594h-8.828124c-4.875 0-8.828126-3.953125-8.828126-8.828125s3.953126-8.828125 8.828126-8.828125h8.828124c4.875 0 8.828126 3.953125 8.828126 8.828125s-3.953126 8.828125-8.828126 8.828125zm0 0" fill="#f0c419"/><path d="m114.820312 308.996094h-8.828124c-4.875 0-8.828126-3.949219-8.828126-8.824219 0-4.878906 3.953126-8.828125 8.828126-8.828125h8.828124c4.875 0 8.828126 3.949219 8.828126 8.828125 0 4.875-3.953126 8.824219-8.828126 8.824219zm0 0" fill="#f0c419"/><path d="m114.820312 273.6875h-8.828124c-4.875 0-8.828126-3.953125-8.828126-8.828125s3.953126-8.828125 8.828126-8.828125h8.828124c4.875 0 8.828126 3.953125 8.828126 8.828125s-3.953126 8.828125-8.828126 8.828125zm0 0" fill="#2c3e50"/><path d="m114.820312 238.375h-8.828124c-4.875 0-8.828126-3.949219-8.828126-8.824219s3.953126-8.828125 8.828126-8.828125h8.828124c4.875 0 8.828126 3.953125 8.828126 8.828125s-3.953126 8.824219-8.828126 8.824219zm0 0" fill="#f0c419"/><path d="m476.753906 485.550781h-8.828125c-4.875 0-8.828125-3.953125-8.828125-8.828125s3.953125-8.828125 8.828125-8.828125h8.828125c4.875 0 8.824219 3.953125 8.824219 8.828125s-3.949219 8.828125-8.824219 8.828125zm0 0" fill="#f0c419"/><path d="m476.753906 423.757812h-8.828125c-4.875 0-8.828125-3.953124-8.828125-8.828124s3.953125-8.828126 8.828125-8.828126h8.828125c4.875 0 8.824219 3.953126 8.824219 8.828126s-3.949219 8.828124-8.824219 8.828124zm0 0" fill="#2c3e50"/><path d="m476.753906 361.964844h-8.828125c-4.875 0-8.828125-3.953125-8.828125-8.828125s3.953125-8.828125 8.828125-8.828125h8.828125c4.875 0 8.824219 3.953125 8.824219 8.828125s-3.949219 8.828125-8.824219 8.828125zm0 0" fill="#f0c419"/><path d="m70.683594 88.308594c.023437 12.609375-6.714844 24.269531-17.65625 30.542968-10.921875-6.292968-17.652344-17.9375-17.652344-30.542968 0-12.605469 6.730469-24.253906 17.652344-30.542969 10.941406 6.273437 17.679687 17.929687 17.65625 30.542969zm0 0" fill="#285680"/><path d="m53.027344 118.851562c-14.835938 8.605469-33.714844 5.304688-44.75-7.828124-11.035156-13.132813-11.035156-32.296876 0-45.429688s29.914062-16.4375 44.75-7.828125c-10.921875 6.289063-17.652344 17.9375-17.652344 30.542969 0 12.605468 6.730469 24.25 17.652344 30.542968zm0 0" fill="#4482c3"/><path d="m397.304688 512.03125v-44.136719c0-4.875 3.953124-8.828125 8.828124-8.828125h17.652344c4.875 0 8.828125 3.953125 8.828125 8.828125v44.136719zm0 0" fill="#2c2f38"/></svg>