<svg xmlns="http://www.w3.org/2000/svg" xmlns:xlink="http://www.w3.org/1999/xlink" xml:space="preserve" style="shape-rendering:geometricPrecision;text-rendering:geometricPrecision;image-rendering:optimizeQuality;" viewBox="0 0 6.82666 8.533325000000001" x="0px" y="0px" fill-rule="evenodd" clip-rule="evenodd"><defs><style type="text/css">
   
    .fil1 {fill:none}
    .fil0 {fill:black}
   
  </style></defs><g><g><path class="fil0" d="M3.28367 3.27119l-0.833114 -0.64224 -0.00168898 -0.00135433 -0.49374 -0.400689 -0.00337402 -0.00294488c-0.0441575,-0.0385984 -0.0898346,-0.111929 -0.104646,-0.167472 -0.0329685,-0.123654 0.038311,-0.213472 0.148201,-0.262402l0.000358268 -0.00023622 0.00345276 -0.00144488 0.0123228 -0.00541732 0.000645669 0 0.00732677 -0.00306299 0.00750787 0c0.0300276,-0.00547638 0.0725197,-0.00574409 0.0957638,-0.00649606 0.0692205,-0.00225197 0.138622,-0.00306299 0.207878,-0.00375984 0.201972,-0.00202756 0.404071,-0.00187795 0.606055,-0.00150394 0.218,0.000405512 0.436,0.0014252 0.653996,0.00251969 0.0763583,0.00038189 0.15272,0.000830709 0.229079,0.000830709 0.0730827,0 0.146177,-0.000555118 0.21926,-0.00101575 0.222976,-0.00140157 0.445953,-0.00268898 0.668933,-0.00304724 0.202319,-0.000326772 0.40485,-0.000311024 0.607146,0.00279921 0.0701457,0.00107874 0.140555,0.00235433 0.210638,0.00561417 0.0254921,0.00118504 0.0693819,0.00231102 0.10089,0.00934646l0.0069252 0 0.0149016 0.00685433c0.095752,0.0440551 0.16515,0.121606 0.149398,0.232697 -0.00944488,0.0665906 -0.0592835,0.150736 -0.11015,0.195197l-0.00337402 0.00294488 -0.495433 0.402043 -0.83326 0.642362c-0.15526,0.124673 -0.332217,0.219331 -0.535874,0.219331 -0.203657,0 -0.380614,-0.0946575 -0.535874,-0.219331l-0.000149606 -0.000122047zm-0.694539 -0.818835l0.831488 0.640965c0.112764,0.0869331 0.251811,0.17263 0.399075,0.17263 0.147276,0 0.286311,-0.0856772 0.399083,-0.17261l0.831476 -0.640984 0.488772 -0.396654c0.00862205,-0.00835827 0.0279921,-0.0341969 0.0297165,-0.0471417 -0.00188976,-0.0017126 -0.00486614,-0.00358268 -0.00773228,-0.00518504 -0.0262598,-0.00349213 -0.062437,-0.00315748 -0.0875669,-0.00385433 -0.0677835,-0.00188189 -0.135669,-0.00260236 -0.203472,-0.00317717 -0.192008,-0.00162205 -0.384114,-0.00131102 -0.57613,-0.000748031 -0.217886,0.000641732 -0.435768,0.00193307 -0.65365,0.00330315 -0.0734646,0.00046063 -0.147039,0.00130709 -0.220496,0.00130709 -0.0766772,0 -0.153441,-0.000740157 -0.230122,-0.00112205 -0.213465,-0.00107087 -0.426933,-0.0022126 -0.640398,-0.00293307 -0.192118,-0.000645669 -0.38428,-0.0011378 -0.576398,-0.000279528 -0.0674331,0.000299213 -0.134913,0.000700787 -0.202335,0.00192913 -0.0258425,0.000472441 -0.0594528,-0.000200787 -0.0860866,0.00255512 -0.00431102,0.00209055 -0.0104409,0.00540157 -0.0135157,0.00828346 0.00156299,0.0128386 0.020937,0.0387205 0.0295512,0.0470906l0.48874 0.396626z"/><path class="fil0" d="M3.93204 5.68864l0.726201 0c0.0620197,0 0.112343,0.0503228 0.112343,0.112343 0,0.0620197 -0.0503228,0.112346 -0.112343,0.112346l-1.67709 0c-0.0620236,0 -0.112346,-0.0503268 -0.112346,-0.112346 0,-0.0620197 0.0503228,-0.112343 0.112346,-0.112343l0.726201 0 0 -2.38524 0.224693 0 0 2.38524z"/><line class="fil1" x1="3.98313" y1="0.913343" x2="3.98313" y2="0.913339"/><line class="fil1" x1="3.98313" y1="0.913339" x2="3.98313" y2="0.913339"/><path class="fil0" d="M5.05025 2.355l0.104972 -0.085189c-0.185512,-0.0146024 -0.372799,-0.0204291 -0.557654,-0.0111457 -0.240835,0.0120945 -0.544972,0.0538661 -0.749248,0.190984 -0.225957,0.151673 -0.500457,0.192646 -0.767386,0.176331 -0.0539449,-0.00329528 -0.107866,-0.00887402 -0.161575,-0.0164134l0.501256 0.386398c0.112764,0.0869291 0.251811,0.17263 0.399075,0.17263 0.147276,0 0.286311,-0.0856772 0.399083,-0.17261l0.831476 -0.640984z"/><path class="fil0" d="M1.90356 1.16044l0.189213 0 -0.0946102 0.460535 -0.0946024 -0.460535zm0.257717 0.504236l0.148335 -0.446138 0.16387 0.0946063 -0.312205 0.351531zm0.215965 0.0336614l0.25498 -0.226453 0.0946024 0.163858 -0.185319 0.0616181c0.131752,-0.000484252 0.263504,-0.000338583 0.395256,-9.44882e-005l0.000519685 0c-0.0477795,-0.180075 -0.145984,-0.339661 -0.278638,-0.462693 -0.382701,-0.354949 -0.978114,-0.343693 -1.34745,0.0256457 -0.379394,0.379394 -0.379394,0.994563 0,1.37396 0.323252,0.323252 0.823,0.374213 1.20149,0.137228l-0.108406 -0.0835709 -0.00259843 -0.00208661 -0.382587 -0.31048 0.073685 0.358689 -0.189209 0 0.0796614 -0.387791 -0.0763465 -0.0619567 -0.00438976 -0.00383465c-0.0550591,-0.0480827 -0.108921,-0.133969 -0.127748,-0.204591 -0.0154213,-0.0578504 -0.0136024,-0.115724 0.0106575,-0.170878 0.033378,-0.0758858 0.10128,-0.12887 0.168661,-0.173331l0.00622047 -0.00410236 0.00931102 -0.00389764 0.0261102 -0.0114803 0.00135827 0 0.00733071 -0.00306299 0.0162362 0c0.0327756,-0.00519291 0.0665748,-0.00538583 0.099626,-0.00646063 0.0698307,-0.00226772 0.139697,-0.00309449 0.209559,-0.00379528 0.0158071,-0.00015748 0.0316142,-0.00030315 0.0474252,-0.000437008zm-0.690524 -0.479795l0.148339 0.446134 -0.312205 -0.351531 0.163866 -0.0946024zm-0.417205 1.04011l0.446134 -0.148339 -0.351528 0.312197 -0.0946063 -0.163858zm0.0946063 -0.786764l0.351528 0.312197 -0.446138 -0.148331 0.0946102 -0.163866zm-0.152713 0.380705l0.460531 0.0946102 -0.460531 0.0946024 0 -0.189213zm0.311453 0.728661l0.312201 -0.351531 -0.148335 0.446134 -0.163866 -0.0946024z"/></g></g><rect class="fil1" width="6.82666" height="6.82666"/><text x="0" y="21.82666" fill="#000000" font-size="5px" font-weight="bold" font-family="'Helvetica Neue', Helvetica, Arial-Unicode, Arial, Sans-serif"></text><text x="0" y="26.82666" fill="#000000" font-size="5px" font-weight="bold" font-family="'Helvetica Neue', Helvetica, Arial-Unicode, Arial, Sans-serif"></text></svg>