<svg xmlns="http://www.w3.org/2000/svg" xmlns:xlink="http://www.w3.org/1999/xlink" version="1.1" x="0px" y="0px" viewBox="0 0 436.796 264.38624999999996" style="enable-background:new 0 0 436.796 211.509;" xml:space="preserve"><g><path d="M129.033,115.194c-1.56-0.838-3.097-1.679-4.618-2.52c-3.705,3.046-5.933,5.338-7.227,6.856   c-0.698,0.805-1.212,1.497-1.587,2.061c1.66,0.697,4.372,1.489,7.654,2.012c4.005,0.669,8.267,0.948,11.485,1.06   c0.539-0.484,1.076-0.873,1.621-1.169l4.201-2.334c-3.341-1.667-6.606-3.349-9.791-5.042   C130.181,115.832,129.6,115.526,129.033,115.194z"/><ellipse transform="matrix(0.851 -0.5252 0.5252 0.851 -28.326 88.277)" cx="141.401" cy="94.056" rx="22.501" ry="22.5"/><path d="M30.615,52.96c-0.104,0.712-0.162,1.435-0.159,2.162c0,1.915,0.362,3.883,1.107,5.797   c2.214,5.639,7.216,9.454,12.758,9.494c0.005,0,0.011,0,0.016,0c0.748,0,1.501-0.083,2.248-0.236   c5.853,12.902,17.141,35.376,33.67,57.918c15.436,21.034,35.525,42.232,60.14,55.565c30.979,19.845,60.049,27.855,86.618,27.85   c52.24-0.027,94.33-30.731,123.315-61.151c10.593-11.124,19.447-22.227,26.434-31.855c0.114-0.11,0.18-0.174,0.183-0.177   l-0.031-0.032c4.618-6.375,8.407-12.084,11.33-16.716c0.056,0.023,0.108,0.05,0.164,0.073c1.318,0.516,2.696,0.761,4.049,0.761   c0.006,0,0.011,0,0.017,0c5.544-0.039,10.543-3.854,12.759-9.493c0.745-1.916,1.105-3.884,1.105-5.797   c0.003-0.726-0.054-1.448-0.158-2.16c9.063-7.885,21.261-22.81,30.616-50.117l-5.673-1.949   c-8.12,23.611-18.212,37.269-26.14,45.021c-0.397,0.388-0.786,0.751-1.172,1.11c-0.309-0.424-0.645-0.828-1.007-1.208   c6.576-12.049,13.237-28.039,14.756-45.306l-5.978-0.512c-1.355,15.952-7.646,31.171-13.937,42.733   c-0.972-0.265-1.963-0.398-2.944-0.396c-5.544,0.039-10.545,3.854-12.76,9.495l0.002,0.001c-0.747,1.911-1.107,3.879-1.109,5.795   c-0.005,1.378,0.191,2.742,0.567,4.043c-24.423,17.085-48.552,30.664-71.579,41.459c-1.837-1.373-4.065-2.267-6.522-2.453v-0.002   c-4.733-0.36-9.332-0.53-13.79-0.528c-31.666-0.015-56.222,8.592-73.235,17.82c-4.552-1.213-9.033-2.495-13.436-3.843   c2.558,2.344,5.587,4.649,9.219,6.961c17.233-7.707,36.124-12.178,56.172-13.293c3.247-0.179,6.558-0.27,9.847-0.27   c6.461,0,13.055,0.367,19.668,1.064c-1.944,0.845-3.879,1.674-5.805,2.48c-8.29-0.633-16.153-0.689-23.543-0.278   c-24.025,1.335-43.085,7.486-56.564,13.694c-21.176-12.973-24.242-25.668-27.363-44.848c0.497-1.192,1.014-2.482,1.532-3.855   c1.188-3.159,2.376-6.718,3.259-10.41c0.871-3.705,1.487-7.515,1.282-11.485c-0.211-3.615-1.149-7.814-4.441-11.329   c-1.62-1.715-3.774-3.049-6.048-3.783c-2.282-0.748-4.643-0.96-7.015-0.829c-4.932,0.319-10.145,1.952-16.44,4.903   c2.203,1.743,4.126,3.873,5.651,6.342c1.428,2.313,2.416,4.775,3.001,7.287c4.208-1.802,7.174-2.513,8.677-2.558   c0.217-0.012,0.398-0.014,0.547-0.009c0.04,0.225,0.077,0.516,0.094,0.863c0.102,1.547-0.197,4.119-0.87,6.883   c-0.989,4.169-2.716,8.804-4.188,12.285c-0.559,1.321-1.077,2.482-1.505,3.408c-10.068,5.593-20.138,11.185-30.208,16.779   c-0.608,0.331-1.234,0.884-1.843,1.573c-3.704-0.091-8.611-0.374-13.171-1.135c-3.96-0.63-7.639-1.712-9.588-2.802   c-0.8-0.427-1.277-0.825-1.475-1.026c0.075-0.512,0.8-2.399,3.183-5.152c1.766-2.072,4.391-4.606,7.967-7.521   c-0.844-0.978-1.626-2.021-2.318-3.142c-2.407-3.9-3.582-8.218-3.639-12.498c-7.038,5.303-12.074,9.978-15.601,14.52   c-3.553,4.622-5.84,9.443-5.588,14.86c0.165,3.574,1.729,6.939,3.798,9.291c3.681,4.146,8.208,6.024,12.738,7.456   c6.826,2.053,14.185,2.73,20.047,3.028c0.866,0.041,1.692,0.072,2.48,0.095c16.982,11.233,26.835,19.348,38.279,31.085   c-1.302,0.149-2.571,0.289-3.809,0.417c-10.738-10.82-20.096-18.355-35.42-28.531c-0.539-0.018-1.096-0.04-1.67-0.069   c-5.325-0.271-13.256-0.893-20.772-3.153c-4.866-1.538-9.912-3.603-14.117-8.336c-2.711-3.081-4.365-7.14-4.55-11.145   c-0.263-5.628,1.708-10.976,6.206-16.826c1.575-2.029,3.427-4.066,5.576-6.156C86.524,89.72,72.289,78.998,62.37,70.899   c-3.087-2.521-5.742-4.776-7.979-6.726c1.039-1.979,1.577-4.247,1.568-6.545c0-1.913-0.358-3.881-1.105-5.795   c-2.216-5.643-7.216-9.456-12.76-9.498c-0.978,0-1.966,0.133-2.936,0.397C32.875,31.167,26.55,15.964,25.214,0l-5.976,0.513   c1.519,17.267,8.18,33.257,14.755,45.306c-0.364,0.381-0.701,0.786-1.011,1.211C24.883,39.5,14.22,25.676,5.674,0.895L0,2.845   C9.354,30.15,21.552,45.074,30.615,52.96z M37.153,58.738c-0.136-0.348-0.246-0.697-0.341-1.044   c2.708,1.78,4.733,2.728,5.747,3.143c0.352,0.872,0.849,2.075,1.478,3.552C41.499,64.282,38.508,62.248,37.153,58.738z    M383.701,98.16c0.146,0.182,0.299,0.357,0.455,0.531c-0.934,1.482-1.963,3.083-3.08,4.783c-0.929,0.82-2.016,1.765-3.296,2.849   c-13.621,11.526-46.681,36.739-92.57,53.526l1.031,2.817c41.576-15.216,72.637-37.206,88.564-50.009   c-2.414,3.405-5.09,7.036-8.011,10.811c-0.047,0.041-0.091,0.079-0.139,0.12c-15.937,13.708-53.69,42.838-99.848,56.229   l0.838,2.881c38.125-11.081,70.4-32.597,89.78-47.693c-3.47,4.07-7.188,8.214-11.149,12.355   c-16.629,13.521-57.345,41.966-111.551,48.071l0.336,2.982c40.662-4.605,73.73-21.485,95.055-35.536   c-27.001,23.713-61.963,43.641-103.102,43.629c-24.533-0.006-51.368-7.05-80.29-24.783   C176.166,180.922,277.1,172.501,383.701,98.16z M399.643,90.737c-1.406,3.641-4.576,5.716-7.169,5.675   c-0.336,0-0.665-0.034-0.99-0.096c0.778-1.297,1.439-2.426,1.989-3.382l0.056,0.166c0.221-0.057,2.675-0.923,6.453-3.405   C399.888,90.042,399.779,90.39,399.643,90.737z M386.836,89.628c-0.002-1.161,0.219-2.393,0.696-3.614l-2.796-1.091l2.796,1.089   c1.358-3.518,4.355-5.553,6.897-5.652c-1.657,2.765-3.247,5.227-4.671,7.329c-0.97,0.709-1.94,1.42-2.91,2.118   C386.847,89.746,386.837,89.69,386.836,89.628z M49.264,54.014c0.476,1.221,0.696,2.452,0.696,3.614   c-0.004,0.678-0.091,1.312-0.225,1.913c-1.941-2.667-4.556-6.487-7.366-11.181C44.909,48.461,47.905,50.497,49.264,54.014z"/></g><text x="0" y="226.509" fill="#000000" font-size="5px" font-weight="bold" font-family="'Helvetica Neue', Helvetica, Arial-Unicode, Arial, Sans-serif"></text><text x="0" y="231.509" fill="#000000" font-size="5px" font-weight="bold" font-family="'Helvetica Neue', Helvetica, Arial-Unicode, Arial, Sans-serif"></text></svg>