<svg height="512pt" viewBox="-6 0 512 512" width="512pt" xmlns="http://www.w3.org/2000/svg"><path d="m493.007812 221.835938-190.839843-220.058594c-2.054688-2.371094-5.738281-2.371094-7.792969 0l-190.839844 220.058594c-15.027344 16.234374-3.515625 42.582031 18.609375 42.582031 7.34375 0 14.324219-3.183594 19.140625-8.726563l153.09375-176.226562c2.054688-2.367188 5.730469-2.367188 7.789063 0l153.089843 176.226562c4.816407 5.542969 11.800782 8.726563 19.144532 8.726563 22.121094 0 33.632812-26.347657 18.605468-42.582031zm0 0" fill="#ea4444"/><path d="m455.257812 255.691406-153.09375-176.226562c-2.054687-2.367188-5.730468-2.367188-7.789062 0l-153.089844 176.226562v256.308594h313.972656zm0 0" fill="#ececf1"/><path d="m455.261719 255.695312v256.300782h-22.875v-234.835938c0-8.503906-3.070313-16.722656-8.648438-23.144531l-140.5-161.734375 11.132813-12.816406c2.066406-2.375 5.738281-2.375 7.789062 0zm0 0" fill="#d3d3d8"/><path d="m499.804688 238.898438c0 7.902343-3.738282 15.589843-10.0625 20.417968-.03125-6.601562-2.402344-13.339844-7.625-18.984375l-197.308594-227.519531 9.5625-11.03125c2.066406-2.375 5.738281-2.375 7.800781 0l190.832031 220.050781c4.695313 5.078125 6.800782 11.132813 6.800782 17.066407zm0 0" fill="#d93131"/><path d="m295.234375 350.972656-46.761719 53.117188v87.683594h99.597656v-87.683594l-46.761718-53.117188c-1.609375-1.828125-4.460938-1.828125-6.074219 0zm0 0" fill="#ea4444"/><path d="m348.066406 404.089844v78.375h-15.03125v-66.839844c0-3.113281-1.136718-6.117188-3.191406-8.453125l-42.042969-47.75 7.4375-8.449219c1.609375-1.824218 4.457031-1.824218 6.066407 0zm0 0" fill="#d93131"/><path d="m376.777344 390.4375-75.515625-82.820312c-1.605469-1.761719-4.375-1.761719-5.980469 0l-75.515625 82.820312c-8.832031 9.691406-1.960937 25.257812 11.148437 25.257812 4.324219 0 8.4375-1.855468 11.300782-5.089843l53.027344-59.925781c1.609374-1.820313 4.449218-1.820313 6.0625 0l53.027343 59.925781c2.863281 3.234375 6.976563 5.089843 11.296875 5.089843 13.109375 0 19.984375-15.566406 11.148438-25.257812zm0 0" fill="#83afe4"/><path d="m380.753906 400.507812c0 6.109376-3.753906 12-9.75 14.242188.476563-1.527344.722656-3.128906.722656-4.746094 0-3.6875-1.289062-7.441406-4.179687-10.609375l-77.972656-85.515625 5.707031-6.261718c1.609375-1.765626 4.375-1.765626 5.984375 0l75.515625 82.820312c2.746094 3.003906 3.972656 6.574219 3.972656 10.070312zm0 0" fill="#5290d9"/><path d="m370.535156 512h-144.523437v-24.378906c0-2.847656 2.308593-5.15625 5.15625-5.15625h134.207031c2.847656 0 5.160156 2.308594 5.160156 5.15625zm0 0" fill="#babac0"/><path d="m370.527344 487.625v24.371094h-15.03125v-24.371094c0-2.847656-2.300782-5.160156-5.160156-5.160156h15.035156c2.859375 0 5.15625 2.3125 5.15625 5.160156zm0 0" fill="#a1a1a7"/><path d="m336.265625 272.175781h-75.992187v-96.976562c0-5.699219 4.617187-10.316407 10.316406-10.316407h55.355468c5.699219 0 10.320313 4.617188 10.320313 10.316407zm0 0" fill="#c9f0ff"/><path d="m336.265625 175.195312v96.976563h-15.035156v-96.976563c0-5.695312-4.609375-10.316406-10.316407-10.316406h15.035157c5.695312 0 10.316406 4.621094 10.316406 10.316406zm0 0" fill="#9ae7fd"/><path d="m287.796875 251.992188c6.191406 0 12-3.511719 14.425781-9.207032 2.609375-6.125 1.035156-13.203125-3.71875-17.578125-1.789062-1.644531-4.175781-3.121093-6.589844-3.589843-.246093-.046876-.878906-.179688-1.632812-.316407-1.738281-.308593-2.941406-2.003906-2.542969-3.726562.300781-1.300781.4375-2.664063.382813-4.066407-.308594-7.941406-6.832032-14.488281-14.773438-14.816406-8.816406-.359375-16.078125 6.679688-16.078125 15.417969 0 1.144531.128907 2.257813.363281 3.328125.386719 1.730469-.734374 3.417969-2.46875 3.777344-1.035156.214844-1.945312.464844-2.242187.554687-2.300781.695313-4.421875 1.941407-6.167969 3.59375-3.496094 3.316407-5.351562 8.164063-4.816406 12.96875.875 7.863281 7.8125 13.660157 15.722656 13.660157zm0 0" fill="#509e49"/><path d="m298.503906 225.207031c-1.785156-1.652343-4.167968-3.125-6.59375-3.589843-.238281-.050782-.867187-.175782-1.628906-.308594-1.734375-.3125-2.941406-2.011719-2.539062-3.734375.296874-1.300781.433593-2.664063.378906-4.066407-.308594-7.933593-6.828125-14.488281-14.773438-14.816406-6.945312-.289062-12.929687 4.03125-15.148437 10.140625 1.726562-.578125 3.582031-.855469 5.523437-.773437 5.257813.222656 10.125 3.253906 12.742188 7.808594 2.035156 3.539062.765625 8.0625 2.671875 11.667968 2.015625 3.820313 6.710937 4.238282 9.738281 7.039063 4.5 4.136719 6.152344 10.703125 4.097656 16.570312 4.074219-1.351562 7.53125-4.300781 9.253906-8.355469 2.609376-6.128906 1.03125-13.207031-3.722656-17.582031zm0 0" fill="#44873e"/><path d="m354.6875 272.175781h-112.839844v-24.378906c0-2.847656 2.308594-5.160156 5.160156-5.160156h102.523438c2.847656 0 5.15625 2.3125 5.15625 5.160156zm0 0" fill="#babac0"/><path d="m354.683594 247.796875v24.371094h-15.03125v-24.371094c0-2.847656-2.304688-5.15625-5.160156-5.15625h15.03125c2.859374 0 5.160156 2.308594 5.160156 5.15625zm0 0" fill="#a1a1a7"/><path d="m135.140625 239.820312c-6.847656-8.75-8.6875-20.492187-5.101563-31.007812 1.984376-5.816406 3.058594-12.046875 3.058594-18.535156 0-11.570313-3.417968-22.335938-9.296875-31.351563-6.289062-9.640625-7.136719-21.933593-2.589843-32.503906 2.851562-6.636719 4.292968-14.011719 3.960937-21.765625-1.078125-25.089844-21.265625-45.738281-46.324219-47.339844-28.890625-1.84375-52.894531 21.039063-52.894531 49.53125 0 6.878906 1.402344 13.433594 3.933594 19.390625 4.527343 10.65625 3.8125 22.988281-2.511719 32.6875-5.882812 9.015625-9.300781 19.78125-9.300781 31.351563 0 6.648437 1.132812 13.035156 3.210937 18.972656 3.695313 10.558594 1.226563 22.160156-5.601562 31.019531-10.332032 13.40625-16.265625 30.375-15.636719 48.746094 1.375 40.324219 34.917969 72.796875 75.261719 72.941406 41.871094.148438 75.863281-33.746093 75.863281-75.585937 0-17.558594-5.984375-33.71875-16.03125-46.550782zm0 0" fill="#bfddba"/><path d="m151.179688 286.371094c0 41.839844-33.992188 75.738281-75.867188 75.589844-3.4375-.011719-6.832031-.261719-10.15625-.734376 36.777344-5.097656 65.09375-36.671874 65.09375-74.855468 0-17.558594-5.992188-33.714844-16.03125-46.550782-6.851562-8.746093-8.6875-20.492187-5.097656-31.011718 1.980468-5.8125 3.058594-12.042969 3.058594-18.53125 0-11.574219-3.425782-22.335938-9.304688-31.355469-6.28125-9.636719-7.128906-21.933594-2.589844-32.5 2.851563-6.636719 4.296875-14.015625 3.964844-21.765625-.976562-22.632812-17.5-41.65625-39.125-46.332031 4.386719-.953125 8.984375-1.304688 13.714844-1.007813 25.0625 1.605469 45.257812 22.253906 46.335937 47.339844.332031 7.75-1.113281 15.128906-3.96875 21.765625-4.535156 10.566406-3.699219 22.863281 2.589844 32.5 5.882813 9.019531 9.296875 19.78125 9.296875 31.355469 0 6.488281-1.078125 12.71875-3.0625 18.53125-3.574219 10.519531-1.742188 22.265625 5.113281 31.011718 10.039063 12.835938 16.035157 28.992188 16.035157 46.550782zm0 0" fill="#9fcc97"/><path d="m112.40625 272.28125c-2.824219-3.214844-7.71875-3.53125-10.933594-.710938l-18.300781 16.066407v-69.097657l18.308594-16.074218c3.214843-2.820313 3.535156-7.714844.710937-10.929688-2.820312-3.214844-7.714844-3.535156-10.929687-.710937l-8.089844 7.097656v-60c0-4.277344-3.464844-7.746094-7.746094-7.746094-4.277343 0-7.746093 3.464844-7.746093 7.746094v60l-8.085938-7.101563c-3.214844-2.820312-8.109375-2.503906-10.933594.710938-2.820312 3.214844-2.503906 8.109375.710938 10.933594l18.308594 16.074218v69.097657l-18.300782-16.066407c-3.214844-2.824218-8.109375-2.503906-10.929687.710938-2.824219 3.214844-2.503907 8.109375.710937 10.929688l28.519532 25.039062v107.242188c0 4.277343 3.46875 7.746093 7.746093 7.746093 4.277344 0 7.746094-3.46875 7.746094-7.746093v-107.238282l28.523437-25.039062c3.214844-2.824219 3.53125-7.71875.710938-10.933594zm0 0" fill="#b88a65"/><path d="m39.082031 436.785156c-21.121093 0-38.175781 17.410156-37.59375 38.664063.5625 20.484375 17.882813 36.550781 38.375 36.550781h107.40625c21.78125 0 39.269531-18.390625 37.78125-40.492188-1.261719-18.667968-16.347656-33.8125-35.007812-35.144531-5.464844-.390625-10.699219.382813-15.492188 2.09375-2.214843.789063-4.625-.214843-5.71875-2.296875-4.398437-8.375-11.847656-13.480468-23.640625-15.394531-1.832031-.296875-3.324218-1.621094-3.800781-3.414063-1.8125-6.851562-8.351563-23.050781-29.507813-22.355468-14.039062.457031-25.757812 11.5-25.714843 25.546875.007812 3.617187.773437 7.050781 2.144531 10.164062 1.175781 3.132813-1.238281 6.449219-4.585938 6.292969zm0 0" fill="#509e49"/><path d="m185.046875 471.503906c-1.261719-18.664062-16.34375-33.8125-35-35.140625-5.46875-.394531-10.699219.378907-15.496094 2.09375-2.210937.792969-4.625-.21875-5.71875-2.292969-4.394531-8.375-11.84375-13.484374-23.636719-15.394531-1.835937-.296875-3.320312-1.628906-3.796874-3.414062-1.816407-6.851563-8.359376-23.050781-29.511719-22.359375-12.203125.390625-22.644531 8.78125-25.144531 20.191406 4.242187-3.042969 9.441406-4.878906 14.992187-5.054688 21.152344-.703124 27.695313 15.496094 29.511719 22.347657.472656 1.796875 1.96875 3.117187 3.796875 3.417969 11.792969 1.917968 19.242187 7.015624 23.636719 15.394531 1.09375 2.082031 3.507812 3.082031 5.726562 2.300781 4.789062-1.714844 10.019531-2.488281 15.488281-2.09375 18.65625 1.328125 33.75 16.476562 35.007813 35.140625.371094 5.480469-.433594 10.730469-2.167969 15.527344 8.214844-7.46875 13.136719-18.507813 12.3125-30.664063zm0 0" fill="#44873e"/><path d="m323.589844 422c-4.277344 0-7.746094 3.46875-7.746094 7.746094v12.683594c0 4.277343 3.46875 7.746093 7.746094 7.746093 4.28125 0 7.746094-3.46875 7.746094-7.746093v-12.683594c0-4.277344-3.46875-7.746094-7.746094-7.746094zm0 0" fill="#babac0"/></svg>