<?xml version="1.0"?>
<svg xmlns="http://www.w3.org/2000/svg" height="512px" viewBox="-64 0 480 480.00132" width="512px"><g><path d="m176 0c-97.15625.109375-175.890625 78.84375-176 176 0 94.566406 162.898438 292.710938 169.832031 301.097656 1.519531 1.839844 3.78125 2.902344 6.167969 2.902344s4.648438-1.0625 6.167969-2.902344c6.9375-8.386718 169.832031-206.53125 169.832031-301.097656-.109375-97.15625-78.84375-175.890625-176-176zm0 459.28125c-30.101562-37.578125-160-204.328125-160-283.28125 0-88.367188 71.636719-160 160-160 88.367188 0 160 71.632812 160 160 0 78.953125-129.894531 245.703125-160 283.28125zm0 0" data-original="#000000" class="active-path" data-old_color="#000000" fill="#0023C2"/><path d="m176 40c-75.109375 0-136 60.890625-136 136s60.890625 136 136 136c75.113281 0 136-60.890625 136-136-.082031-75.074219-60.921875-135.917969-136-136zm0 256c-66.273438 0-120-53.726562-120-120s53.726562-120 120-120 120 53.726562 120 120c-.074219 66.242188-53.757812 119.925781-120 120zm0 0" data-original="#000000" class="active-path" data-old_color="#000000" fill="#0023C2"/><path d="m277.121094 161.847656-96-80c-2.964844-2.46875-7.273438-2.46875-10.242188 0l-96 80c-2.589844 2.15625-3.554687 5.703125-2.40625 8.875 1.144532 3.167969 4.15625 5.28125 7.527344 5.277344h24v72c0 4.417969 3.582031 8 8 8h47.601562c4.394532 0 7.96875-3.546875 8-7.945312l.34375-48.054688h16.054688v48c0 4.417969 3.582031 8 8 8h48c4.417969 0 8-3.582031 8-8v-72h24c3.371094.003906 6.382812-2.109375 7.53125-5.277344 1.144531-3.171875.183594-6.71875-2.410156-8.875zm-37.121094-1.847656c-4.417969 0-8 3.582031-8 8v72h-32v-48c0-4.417969-3.582031-8-8-8h-32c-4.394531 0-7.96875 3.546875-8 7.945312l-.335938 48.054688h-31.664062v-72c0-4.417969-3.582031-8-8-8h-9.902344l73.902344-61.601562 73.90625 61.601562zm0 0" data-original="#000000" class="active-path" data-old_color="#000000" fill="#0023C2"/></g> </svg>
