<?xml version="1.0"?>
<svg xmlns="http://www.w3.org/2000/svg" height="512px" viewBox="-74 1 511 511.99899" width="512px"><g><path d="m182.5 0c-.003906 0-.003906 0-.003906 0s-.003906 0-.007813 0c-100.347656.0117188-181.988281 81.648438-181.988281 181.996094 0 58.957031 28.933594 131.769531 86 216.421875 40.476562 60.042969 80.363281 103.832031 84.550781 108.386719 2.835938 3.246093 6.980469 5.195312 11.4375 5.195312h.007813c4.457031 0 8.601562-1.949219 11.4375-5.195312 4.1875-4.554688 44.074218-48.34375 84.550781-108.386719 57.066406-84.652344 86-157.46875 86-216.421875 0-100.347656-81.640625-181.9843752-181.984375-181.996094zm-.007812 30.363281c83.609374.003907 151.628906 68.023438 151.628906 151.632813 0 107.394531-114.898438 249.285156-151.632813 291.894531-36.738281-42.59375-151.621093-184.398437-151.621093-291.894531-.003907-83.609375 68.015624-151.628906 151.625-151.632813zm0 0" data-original="#000000" class="active-path" data-old_color="#000000" fill="#0023C2"/><path d="m71.839844 144.101562c.230468 5.878907 3.835937 11.09375 9.257812 13.386719l33.230469 14.046875v61.875c0 8.386719 6.796875 15.183594 15.183594 15.183594h105.96875c8.386719 0 15.183593-6.796875 15.183593-15.183594v-61.875l33.230469-14.046875c5.421875-2.292969 9.027344-7.507812 9.257813-13.386719.234375-5.878906-2.953125-11.363281-8.175782-14.074218l-95.488281-49.554688c-4.382812-2.277344-9.601562-2.277344-13.984375 0l-95.488281 49.554688c-5.222656 2.710937-8.410156 8.195312-8.175781 14.074218zm72.851562 74.125v-33.851562l31.894532 13.480469c1.886718.800781 3.898437 1.199219 5.910156 1.199219 2.011718 0 4.023437-.398438 5.914062-1.199219l31.890625-13.480469v33.851562zm97.625-76.128906-59.820312 25.289063-59.820313-25.289063 59.820313-31.042968zm0 0" data-original="#000000" class="active-path" data-old_color="#000000" fill="#0023C2"/></g> </svg>
