<svg xmlns="http://www.w3.org/2000/svg" xmlns:xlink="http://www.w3.org/1999/xlink" version="1.1" x="0px" y="0px" viewBox="0 0 100 125" style="enable-background:new 0 0 100 100;" xml:space="preserve"><path d="M92.17,35.85c-0.01-0.27-0.15-0.53-0.42-0.86l-6.7-8.03l-0.01,0.01l-4.3-5.15c-0.6-0.72-1.65-0.97-2.45-0.5  c-1.03,0.61-1.23,1.95-0.5,2.83l5.52,6.61l-2.55,5.61c-0.3,0.66-0.19,1.43,0.27,1.98l4.04,4.84l2.38,2.94v32  c0,0.98-0.67,1.89-1.63,2.04c-1.23,0.2-2.29-0.74-2.29-1.93v-18.3c0-3.69-2.99-6.68-6.68-6.68H71.4V10.65  c0-3.23-2.62-5.84-5.84-5.84H25.06c-3.23,0-5.84,2.62-5.84,5.84v78.06h-1.76c-2.04,0-3.7,1.66-3.7,3.7v2.78h63.1v-2.78  c0-2.04-1.66-3.7-3.7-3.7H71.4V57.99h5.46c1.08,0,1.96,0.88,1.96,1.96v18.07c0,3.39,2.43,6.42,5.8,6.85  c4.07,0.52,7.56-2.65,7.56-6.62L92.17,35.85L92.17,35.85z M31.11,82.22c0,0.82-0.66,1.48-1.48,1.48h-2.46  c-0.82,0-1.48-0.66-1.48-1.48V52.2c0-0.82,0.66-1.48,1.48-1.48h2.46c0.82,0,1.48,0.66,1.48,1.48V82.22z M64.92,34.43  c0,3.23-2.62,5.84-5.84,5.84H31.54c-3.23,0-5.84-2.62-5.84-5.84V16.79c0-3.23,2.62-5.84,5.84-5.84h27.53c3.23,0,5.84,2.62,5.84,5.84  V34.43z"/><text x="0" y="115" fill="#000000" font-size="5px" font-weight="bold" font-family="'Helvetica Neue', Helvetica, Arial-Unicode, Arial, Sans-serif"></text><text x="0" y="120" fill="#000000" font-size="5px" font-weight="bold" font-family="'Helvetica Neue', Helvetica, Arial-Unicode, Arial, Sans-serif"></text></svg>