<svg xmlns="http://www.w3.org/2000/svg" xmlns:xlink="http://www.w3.org/1999/xlink" version="1.1" x="0px" y="0px" viewBox="0 0 512 640" enable-background="new 0 0 512 512" xml:space="preserve"><path d="M304.773,44.422h-203.5c-11.988,0-21.707,9.719-21.707,21.708v379.74c0,11.989,9.719,21.708,21.707,21.708h203.5  c11.988,0,21.707-9.719,21.707-21.708V66.13C326.48,54.141,316.762,44.422,304.773,44.422z M233.464,311.544  c-0.488,10.115-5.382,16.788-11.108,21.159c-11.321,8.641-27.343,8.641-38.664,0c-5.727-4.369-10.62-11.043-11.109-21.158  c-0.301-6.229,1.397-12.395,4.432-17.844l20.138-36.16c2.563-4.601,9.181-4.601,11.744,0l20.136,36.159  C232.068,299.149,233.765,305.314,233.464,311.544z M290.643,151.942c0,12.106-9.813,21.92-21.92,21.92h-47.275  c-0.247-9.973-8.392-17.986-18.424-17.986c-10.033,0-18.177,8.014-18.425,17.986h-47.275c-12.105,0-21.919-9.813-21.919-21.92  V99.546c0-12.105,9.813-21.919,21.919-21.919h131.399c12.107,0,21.92,9.813,21.92,21.919V151.942z"/><path d="M410.234,116.374H359.52c-3.865,0-6.998,3.134-6.998,7v12.348c0,3.588,2.725,6.602,6.295,6.952  c10.814,1.058,18.451,4.726,23.367,8.106c5.73,3.941,9.555,10.195,10.414,17.097c2.311,18.573-11.762,36.088-11.762,36.088  c-19.313,23.239-22.006,53.763-22.164,67.349c-0.045,3.888,3.113,7.048,7.002,7.048h59.76c3.865,0,7-3.134,7-6.999v-132.79  C432.434,126.313,422.494,116.374,410.234,116.374z"/><path d="M403.225,304.402h-12.664c-3.695,0-6.689,2.994-6.689,6.688v41.563c0,12.579-10.197,22.776-22.775,22.776h-1.887  c-3.693,0-6.688,2.995-6.688,6.688v12.664c0,3.694,2.994,6.688,6.688,6.688h1.887c26.961,0,48.816-21.856,48.816-48.817V311.09  C409.912,307.396,406.918,304.402,403.225,304.402z"/><path d="M252.053,122.304l-21.899,11.204c-2.883,1.475-4.134,5.097-2.369,6.861l5.348,5.347l5.348,5.349  c1.765,1.764,5.386,0.513,6.86-2.37l11.205-21.899C258.334,123.298,255.551,120.514,252.053,122.304z"/><text x="0" y="527" fill="#000000" font-size="5px" font-weight="bold" font-family="'Helvetica Neue', Helvetica, Arial-Unicode, Arial, Sans-serif"></text><text x="0" y="532" fill="#000000" font-size="5px" font-weight="bold" font-family="'Helvetica Neue', Helvetica, Arial-Unicode, Arial, Sans-serif"></text></svg>