<svg xmlns="http://www.w3.org/2000/svg" xmlns:xlink="http://www.w3.org/1999/xlink" version="1.1" x="0px" y="0px" viewBox="0 0 100 125" enable-background="new 0 0 100 100" xml:space="preserve"><path d="M89.8903198,44.9932404c6.3416061-0.4473152,7.0209732,9.1942291,0.6805267,9.6413918l-17.6692581,1.3021202  c-2.6623154,0.1877861-4.9731979-1.8181458-5.1609344-4.4804573c-0.1303711-1.8461266,0.1513367-4.5000191,0.2243347-6.4262009  l-8.4792671,7.8145218l16.366787,16.9564247c2.883934,2.9980087,0.8493118,7.9292603-3.1960297,8.1644897l-28.6876373,2.7557755  c-6.316452,0.5965881-7.2233315-9.0070419-0.9074364-9.6036758l18.8932419-1.8148727l-12.7290878-13.187645  c-0.361866-0.3497162-0.6675186-0.7524147-0.9053192-1.1960983L13.3021412,90.1612015  C8.8259678,94.662178,1.9826511,87.8563156,6.4585218,83.355545L60.9277344,28.537672l-5.8134308-5.9750519l-8.6253662,7.869524  c-4.6939049,4.2716484-11.1971359-2.8743496-6.503231-7.1460476l12.0734673-11.015398  c1.973217-1.7957125,5.028904-1.651783,6.8246155,0.3213825l12.2713852,12.6158104  c3.0240784,3.1087208,6.993248,5.8711529,6.8247681,10.312994L77.5863647,45.899971L89.8903198,44.9932404L89.8903198,44.9932404z   M83.4125519,8.3618736c-5.2204208,0-9.4523468,4.2319221-9.4523468,9.452343c0,5.2203693,4.231926,9.4523411,9.4523468,9.4523411  c5.2203674,0,9.4522934-4.2319717,9.4522934-9.4523411C92.8648453,12.5937958,88.6329193,8.3618736,83.4125519,8.3618736z"/><text x="0" y="115" fill="#000000" font-size="5px" font-weight="bold" font-family="'Helvetica Neue', Helvetica, Arial-Unicode, Arial, Sans-serif"></text><text x="0" y="120" fill="#000000" font-size="5px" font-weight="bold" font-family="'Helvetica Neue', Helvetica, Arial-Unicode, Arial, Sans-serif"></text></svg>