<svg xmlns="http://www.w3.org/2000/svg" xmlns:xlink="http://www.w3.org/1999/xlink" version="1.1" x="0px" y="0px" viewBox="0 0 610.622 425.73875" style="enable-background:new 0 0 610.622 340.591;" xml:space="preserve"><g><path d="M197.388,182.587c1.915-1.16,3.966-1.875,5.995-2.149c-3.876-3.046-6.611-7.52-7.314-12.694   c-0.703-5.16,0.646-10.286,3.801-14.432c1.348-1.773,2.97-3.257,4.775-4.452c-2.709-1.078-5.72-1.504-8.814-1.083   c-9.578,1.303-16.285,10.121-14.982,19.698c0.775,5.705,4.228,10.374,8.909,12.956c1.255,0.692,2.59,1.244,3.996,1.613   C194.928,182.352,196.145,182.531,197.388,182.587z"/><path d="M213.032,147.777c-2.27,0.309-4.372,1.052-6.252,2.115c-6.048,3.423-9.724,10.276-8.729,17.583   c0.766,5.639,4.148,10.267,8.748,12.867c0.054,0.029,0.107,0.06,0.161,0.089c1.255,0.692,2.591,1.244,3.996,1.613   c2.153,0.564,4.449,0.731,6.793,0.413c9.576-1.303,16.285-10.123,14.982-19.698C231.429,153.181,222.608,146.475,213.032,147.777z"/><path d="M601.888,273.651h-10.695c5.731-14.217,11.791-30.322,11.791-34.922c0-23.683-152.795-40.773-152.795-40.773   s-57.48-52.357-65.48-58.543c-8.004-6.184-60.027-12.004-108.045-12.004c-48.021,0-105.137,5.82-114.596,10.914   c-9.459,5.094-57.842,60.023-57.842,60.023s-94.221,14.189-98.224,17.463c-4,3.273,0,32.742,0,32.742l11.461,21.826l0.589,3.273   H8.731c-4.819,0-8.731,3.91-8.731,8.732v6.549c0,4.82,3.911,8.73,8.731,8.73h59.267c1.864-25.422,23.062-45.475,48.965-45.475   c25.898,0,47.098,20.053,48.959,45.475h282.598c1.865-25.422,23.064-45.475,48.963-45.475c25.902,0,47.102,20.053,48.965,45.475   h55.441c4.822,0,8.734-3.91,8.734-8.73v-6.549C610.622,277.561,606.71,273.651,601.888,273.651z M159.28,212.438   c0,1.92-1.557,3.477-3.477,3.477h-25.484c-1.922,0-3.477-1.557-3.477-3.477v-3.475c0-1.92,1.555-3.477,3.477-3.477h25.484   c1.92,0,3.477,1.557,3.477,3.477V212.438z M267.314,197.087h-49.969h-1.997c0.392-5.209-1.708-10.609-5.259-13.203   c-1.292-0.368-2.526-0.882-3.701-1.498c-0.164-0.021-0.323-0.057-0.49-0.067c-2.865-0.177-6.118,0.795-8.927,2.967   c-0.519,0.401-1.027,0.832-1.51,1.317c-2.413,2.422-4.306,5.896-5.025,10.484h-2.027c0.006-0.041,0.01-0.08,0.016-0.121   c0.769-5.14,2.96-9.11,5.794-11.895c-1.516-1.583-3.391-2.621-5.523-2.752c-6.04-0.373-13.822,4.293-15.463,14.769h-2.027h-48.344   c19.389-21.625,40.08-43.52,45.437-47.227c7.555-3.057,52.303-8.605,99.014-9.287V197.087z M319.157,212.438   c0,1.92-1.555,3.477-3.477,3.477h-7.237h-1.993h-11.488h-4.768c-1.92,0-3.475-1.557-3.475-3.477v-3.475   c0-1.92,1.555-3.477,3.475-3.477h4.563h12.83h2.018h6.075c1.922,0,3.477,1.557,3.477,3.477V212.438z M403.955,197.087   c0.064,1.463-0.185,2.934-0.772,4.323c-1.042,2.461-2.979,4.367-5.454,5.37c-12.169,4.936-25.012,7.438-38.172,7.438h-0.023   c-4.277-0.004-8.25-0.271-11.861-0.688c-0.677-0.078-1.345-0.16-1.997-0.248c-4.299-0.581-8.016-1.361-11.036-2.13   c-1.158-0.295-2.215-0.588-3.161-0.867c-2.678-0.792-4.475-1.475-5.227-1.776c-2.546-1.057-4.465-2.982-5.483-5.453   c-0.119-0.288-0.22-0.581-0.311-0.875c-0.514-1.665-0.577-3.409-0.201-5.094c0.127-0.57,0.298-1.134,0.527-1.685   c1.079-2.596,3.164-4.529,5.688-5.486c1.114-0.422,2.305-0.673,3.546-0.673c1.322,0,2.614,0.261,3.842,0.773l0.209,0.079   c0.278,0.104,0.695,0.257,1.26,0.447c1.087,0.361,2.874,0.911,5.186,1.466c1.103,0.265,2.383,0.543,3.811,0.809   c-2.223-5.749-6.521-10.15-11.969-10.516c-3.346-0.224-7.065,0.627-10.52,2.603c-4.158,2.377-7.912,6.409-10.185,12.183h-2.122   c2.24-6.075,6.053-10.557,10.437-13.353c-1.943-1.008-4.06-1.503-6.262-1.313c-6.647,0.572-14.118,5.545-17.351,14.666h-15.14   v-56.565c4.62,0.035,9.206,0.126,13.731,0.259c-5.201,4.637-8.185,11.612-7.427,19.073c1.258,12.36,12.295,21.362,24.653,20.105   c2.582-0.263,5.014-0.956,7.24-1.995c-1.913-1.195-3.674-2.66-5.227-4.382c-4.383-4.857-6.612-11.13-6.277-17.665   c0.279-5.452,2.325-10.406,5.56-14.329c0.853,0.049,1.698,0.101,2.542,0.152c-3.541,3.749-5.821,8.725-6.106,14.278   c-0.454,8.876,4.3,16.811,11.583,20.843c2.899,1.605,6.197,2.594,9.729,2.774c12.407,0.637,22.981-8.904,23.618-21.313   c0.252-4.909-1.094-9.528-3.577-13.361c0.863,0.109,1.709,0.22,2.539,0.331c11.728,1.574,20.107,3.295,23.242,4.769   c4.475,3.818,27.275,24.289,48.412,47.025H403.955z"/><path d="M116.962,262.013c-20.475,0-37.281,15.658-39.117,35.65c-0.111,1.197-0.176,2.41-0.176,3.639   c0,21.697,17.59,39.289,39.293,39.289c21.697,0,39.285-17.592,39.285-39.289c0-1.229-0.063-2.441-0.172-3.639   C154.237,277.671,137.433,262.013,116.962,262.013z M116.96,315.852c-8.037,0-14.553-6.516-14.553-14.553   c0-0.492,0.023-0.977,0.072-1.455c0.73-7.354,6.934-13.096,14.48-13.096c7.543,0,13.746,5.742,14.475,13.096   c0.049,0.478,0.074,0.963,0.074,1.455C131.509,309.337,124.993,315.852,116.96,315.852z"/><path d="M497.481,262.013c-20.473,0-37.277,15.658-39.115,35.65c-0.107,1.197-0.174,2.41-0.174,3.639   c0,21.697,17.59,39.289,39.289,39.289c21.701,0,39.289-17.592,39.289-39.289c0-1.229-0.063-2.441-0.172-3.639   C534.761,277.671,517.952,262.013,497.481,262.013z M497.481,315.852c-8.037,0-14.551-6.516-14.551-14.553   c0-0.492,0.025-0.977,0.074-1.455c0.729-7.354,6.932-13.096,14.477-13.096c7.545,0,13.746,5.742,14.477,13.096   c0.049,0.478,0.076,0.963,0.076,1.455C512.034,309.337,505.519,315.852,497.481,315.852z"/><path d="M390.964,190.1c-11.448,4.643-22.252,6.115-31.429,6.117c-4.581,0.001-8.729-0.375-12.335-0.902   c-0.744-0.109-1.462-0.223-2.157-0.344c-1.844-0.318-3.532-0.668-4.995-1.019c-2.343-0.561-4.164-1.116-5.357-1.516   c-0.598-0.201-1.039-0.361-1.31-0.464c-0.135-0.049-0.229-0.086-0.278-0.107l-0.015-0.004c-1.851-0.771-3.825-0.788-5.59-0.202   c-2.124,0.705-3.943,2.285-4.87,4.512c-0.126,0.303-0.226,0.608-0.313,0.916c-0.486,1.726-0.365,3.509,0.26,5.094   c0.767,1.942,2.283,3.586,4.363,4.452l-0.002-0.002c0.208,0.082,1.698,0.694,4.256,1.484c0.991,0.306,2.143,0.638,3.445,0.978   c2.964,0.772,6.703,1.577,11.079,2.177c0.652,0.09,1.316,0.176,1.996,0.255c3.584,0.419,7.545,0.689,11.822,0.693   c0.006,0,0.014,0,0.02,0c10.884,0.001,23.807-1.769,37.421-7.29c3.249-1.317,5.153-4.527,4.977-7.841   c-0.046-0.863-0.226-1.733-0.569-2.579C399.724,190.414,395.06,188.439,390.964,190.1z"/><path d="M206.044,123.495h52.816l4.849-59.997h-57.665c-3.313,0-6,2.687-6,6v47.997   C200.044,120.808,202.731,123.495,206.044,123.495z"/><path d="M341.037,123.495c3.314,0,6-2.687,6-6V69.498c0-3.313-2.686-6-6-6h-57.664l4.85,59.997H341.037z"/><polygon points="266.719,63.498 261.869,123.495 285.212,123.495 280.362,63.498  "/><path d="M231.041,0c-3.313,0-6,2.686-6,6v47.997c0,3.313,2.687,6,6,6h32.951L268.841,0H231.041z"/><polygon points="280.079,59.997 275.229,0 271.852,0 267.002,59.997  "/><path d="M316.041,59.997c3.313,0,6-2.687,6-6V6c0-3.314-2.687-6-6-6H278.24l4.85,59.997H316.041z"/></g><text x="0" y="355.591" fill="#000000" font-size="5px" font-weight="bold" font-family="'Helvetica Neue', Helvetica, Arial-Unicode, Arial, Sans-serif"></text><text x="0" y="360.591" fill="#000000" font-size="5px" font-weight="bold" font-family="'Helvetica Neue', Helvetica, Arial-Unicode, Arial, Sans-serif"></text></svg>